name analog
datacolumns 19
datarows 28
range 0.0 0.0135
endheader
time	ground_force_vx	ground_force_vy	ground_force_vz	ground_force_px	ground_force_py	ground_force_pz	l_ground_force_vx	l_ground_force_vy	l_ground_force_vz	l_ground_force_px	l_ground_force_py	l_ground_force_pz	ground_torque_x	ground_torque_y	ground_torque_z	l_ground_torque_x	l_ground_torque_y	l_ground_torque_z
0.0	-0.0	-0.0	-0.0	-1.3624659776687622	91.53692626953124	-502.92822265625	-0.200391799211502	-96.4669952392578	-489.14892578125	-0.0	-0.0	-0.0	-0.0	-0.0	-0.0	71320.2421875	-25980.19921875	2466.073974609375
0.0005	-0.0	-0.0	-0.0	-1.58972430229187	91.43948364257812	-504.6305236816406	-0.2626697719097137	-96.20525360107422	-488.28173828125	-0.0	-0.0	-0.0	-0.0	-0.0	-0.0	71070.28125	-25981.880859375	2400.122802734375
0.001	-0.0	-0.0	-0.0	-1.5165786743164062	91.18040466308594	-504.8876647949219	-0.2199325412511825	-96.29364013671876	-487.4920654296875	-0.0	-0.0	-0.0	-0.0	-0.0	-0.0	71140.421875	-25658.63671875	2378.172119140625
0.0015	-0.0	-0.0	-0.0	-1.5743703842163086	91.45657348632812	-504.4031677246094	-0.8136920928955078	-96.35504150390624	-485.6853637695313	-0.0	-0.0	-0.0	-0.0	-0.0	-0.0	70950.1015625	-25593.349609375	2208.81005859375
0.002	-0.0	-0.0	-0.0	-1.541148066520691	91.54598999023438	-504.40234375	-0.4477622509002685	-95.9173583984375	-486.218505859375	-0.0	-0.0	-0.0	-0.0	-0.0	-0.0	70579.0703125	-25616.146484375	2273.578125
0.0025	-0.0	-0.0	-0.0	-1.4919426441192627	91.4783706665039	-506.9107666015625	-0.9525225758552552	-95.98248291015624	-485.5217590332031	-0.0	-0.0	-0.0	-0.0	-0.0	-0.0	70846.34375	-25534.5390625	2193.451904296875
0.003	-0.0	-0.0	-0.0	-1.5467422008514404	91.92357635498048	-504.5963134765625	-1.0831326246261597	-95.9173583984375	-484.9903564453125	-0.0	-0.0	-0.0	-0.0	-0.0	-0.0	70675.6484375	-25174.376953125	2310.51123046875
0.0035	-0.0	-0.0	-0.0	-1.4273681640625	91.63590240478516	-506.774169921875	-1.0460970401763916	-95.9873275756836	-485.9071960449219	-0.0	-0.0	-0.0	-0.0	-0.0	-0.0	70468.40625	-25254.70703125	2233.8359375
0.004	-0.0	-0.0	-0.0	-1.1992802619934082	91.52223205566406	-507.2246398925781	-1.0697879791259766	-96.08875274658205	-484.4375	-0.0	-0.0	-0.0	-0.0	-0.0	-0.0	70504.1640625	-25097.318359375	2126.354736328125
0.0045000000000000005	-0.0	-0.0	-0.0	-1.1452471017837524	91.91425323486328	-506.2054748535156	-1.3126473426818848	-95.7586441040039	-484.2733154296875	-0.0	-0.0	-0.0	-0.0	-0.0	-0.0	70371.34375	-24963.634765625	2213.45068359375
0.005	-0.0	-0.0	-0.0	-1.070526123046875	91.98257446289062	-507.5762634277344	-1.182639241218567	-95.87032318115234	-484.0873718261719	-0.0	-0.0	-0.0	-0.0	-0.0	-0.0	70060.671875	-24995.388671875	2207.509765625
0.0055	-0.0	-0.0	-0.0	-1.2348127365112305	92.06082916259766	-506.9682312011719	-1.395689606666565	-95.54048919677734	-483.45806884765625	-0.0	-0.0	-0.0	-0.0	-0.0	-0.0	70178.4609375	-24867.62109375	2096.7255859375
0.006	-0.0	-0.0	-0.0	-0.9534600377082824	92.1859130859375	-507.8727416992188	-1.7504640817642212	-96.00567626953124	-483.3441162109375	-0.0	-0.0	-0.0	-0.0	-0.0	-0.0	70168.8984375	-24918.462890625	2074.679443359375
0.006500000000000001	-0.0	-0.0	-0.0	-0.8280555009841919	92.44194793701172	-508.1715698242188	-1.4086766242980957	-95.59430694580078	-482.9283447265625	-0.0	-0.0	-0.0	-0.0	-0.0	-0.0	70031.6015625	-24620.25390625	2169.85595703125
0.007	-0.0	-0.0	-0.0	-0.8146219253540039	92.00778198242188	-508.3328857421875	-1.9277461767196653	-95.44181823730467	-483.1587829589844	-0.0	-0.0	-0.0	-0.0	-0.0	-0.0	70023.4453125	-24691.404296875	2147.8505859375
0.0075	-0.0	-0.0	-0.0	-0.5099716186523438	91.981201171875	-508.2732543945313	-1.968504786491394	-95.88646697998048	-483.197998046875	-0.0	-0.0	-0.0	-0.0	-0.0	-0.0	69867.90625	-24836.71875	2107.688232421875
0.008	-0.0	-0.0	-0.0	-0.5089899301528931	92.50422668457033	-509.59027099609375	-1.2826340198516846	-95.70751953125	-481.7636413574219	-0.0	-0.0	-0.0	-0.0	-0.0	-0.0	70037.328125	-24803.845703125	2177.947021484375
0.0085	-0.0	-0.0	-0.0	-0.7903790473937988	92.2245635986328	-510.6470642089844	-1.347111463546753	-95.51610565185548	-482.7518310546875	-0.0	-0.0	-0.0	-0.0	-0.0	-0.0	70166.140625	-24871.15625	2105.091064453125
0.009000000000000001	-0.0	-0.0	-0.0	-0.6117281913757324	92.92481231689452	-511.3541259765625	-1.2902380228042605	-95.50760650634766	-481.2259521484375	-0.0	-0.0	-0.0	-0.0	-0.0	-0.0	69888.1875	-24804.48828125	2221.217041015625
0.0095	-0.0	-0.0	-0.0	-0.6877058744430542	92.73369598388672	-509.7398071289063	-1.3306617736816406	-95.3793487548828	-482.1150207519531	-0.0	-0.0	-0.0	-0.0	-0.0	-0.0	70145.703125	-24959.865234375	2180.77099609375
0.01	-0.0	-0.0	-0.0	-0.3701060116291046	92.87388610839844	-510.1421813964844	-1.0486377477645874	-95.04248046875	-481.8292236328125	-0.0	-0.0	-0.0	-0.0	-0.0	-0.0	69940.5546875	-25018.251953125	2173.054931640625
0.0105	-0.0	-0.0	-0.0	-0.4082117676734924	92.69561767578124	-511.559814453125	-1.0244964361190796	-95.05836486816406	-481.3843078613281	-0.0	-0.0	-0.0	-0.0	-0.0	-0.0	69869.6171875	-24816.130859375	2404.68701171875
0.011	-0.0	-0.0	-0.0	-0.204179435968399	92.26378631591795	-510.3997192382813	-0.7340983152389526	-94.51309967041016	-481.19183349609375	-0.0	-0.0	-0.0	-0.0	-0.0	-0.0	70019.3125	-25106.9453125	2364.921142578125
0.0115	-0.0	-0.0	-0.0	0.0493456423282623	92.29926300048828	-510.0940246582031	-0.8075598478317261	-94.58340454101562	-480.1195373535156	-0.0	-0.0	-0.0	-0.0	-0.0	-0.0	69986.0546875	-25386.095703125	2426.270751953125
0.012	-0.0	-0.0	-0.0	-0.2907642424106598	92.6064910888672	-509.4337463378906	-0.862573504447937	-94.2787094116211	-480.7446594238281	-0.0	-0.0	-0.0	-0.0	-0.0	-0.0	69921.8515625	-25405.021484375	2389.5830078125
0.0125	-0.0	-0.0	-0.0	0.2157216966152191	92.7588119506836	-509.9789123535156	-0.4286655187606811	-94.03809356689452	-480.1803283691406	-0.0	-0.0	-0.0	-0.0	-0.0	-0.0	70003.5546875	-25393.919921875	2515.4384765625
0.013000000000000001	-0.0	-0.0	-0.0	0.1300559937953949	92.36508178710938	-509.6973571777344	-0.2020850032567978	-94.01348114013672	-480.3355407714844	-0.0	-0.0	-0.0	-0.0	-0.0	-0.0	70262.734375	-25459.125	2532.0068359375
0.0135	-0.0	-0.0	-0.0	0.0411539077758789	92.46934509277344	-508.6226501464844	-0.167234182357788	-93.76287841796876	-480.8790893554688	-0.0	-0.0	-0.0	-0.0	-0.0	-0.0	70080.65625	-25673.615234375	2441.5869140625
